Brahmi Gadi Katha(2011) Telugu 1CD SCAMRip XviD MP3-=MTR=-

Check out MY latest Uploads:
 
http://thepiratebay.org/user/HDvideos/0/7

Stay updated with us....

Seed after downloading....

EnjoY with HDvideos..

Team Mastitorrents

Say thanks if u like my posts

Give ur valuable feedbacks

Quality Uploads from HDvideos

-=MTR=-

General
Complete name                    : Brahmi Gadi Katha (2011) - 1Cd - SCamRip - XviD - MP3
Format                           : AVI
Format/Info                      : Audio Video Interleave
Format profile                   : OpenDML
Format settings                  : rec
File size                        : 691 MiB
Duration                         : 2h 5mn
Overall bit rate                 : 771 Kbps
Writing application              : AVI-Mux GUI 1.17.8.3, Feb 16 201019:42:50

Video
ID                               : 0
Format                           : MPEG-4 Visual
Format profile                   : Advanced Simple@L5
Format settings, BVOP            : 2
Format settings, QPel            : No
Format settings, GMC             : No warppoints
Format settings, Matrix          : Default (H.263)
Codec ID                         : XVID
Codec ID/Hint                    : XviD
Duration                         : 2h 5mn
Bit rate                         : 719 Kbps
Width                            : 608 pixels
Height                           : 256 pixels
Display aspect ratio             : 2.35:1
Frame rate                       : 29.970 fps
Color space                      : YUV
Chroma subsampling               : 4:2:0
Bit depth                        : 8 bits
Scan type                        : Progressive
Compression mode                 : Lossy
Bits/(Pixel*Frame)               : 0.154
Stream size                      : 644 MiB (93%)
Writing library                  : XviD 1.2.1 (UTC 2008-12-04)

Audio
ID                               : 1
Format                           : MPEG Audio
Format version                   : Version 1
Format profile                   : Layer 3
Mode                             : Joint stereo
Mode extension                   : MS Stereo
Codec ID                         : 55
Codec ID/Hint                    : MP3
Duration                         : 2h 5mn
Bit rate mode                    : Constant
Bit rate                         : 48.0 Kbps
Channel(s)                       : 2 channels
Sampling rate                    : 44.1 KHz
Compression mode                 : Lossy
Stream size                      : 43.0 MiB (6%)
Alignment                        : Aligned on interleaves
Interleave, duration             : 1073 ms (32.14 video frames)
Interleave, preload duration     : 209 ms
Title                            : bramhi gadi katha (2011)

